<svg xmlns="http://www.w3.org/2000/svg" viewBox="0 0 256 256" role="img" aria-label="Default user avatar">
  <defs>
    <linearGradient id="bg" x1="40" y1="30" x2="220" y2="230" gradientUnits="userSpaceOnUse">
      <stop offset="0" stop-color="#fff1f4"/>
      <stop offset="0.52" stop-color="#fff7f8"/>
      <stop offset="1" stop-color="#f7f1ff"/>
    </linearGradient>
    <linearGradient id="face" x1="74" y1="62" x2="184" y2="188" gradientUnits="userSpaceOnUse">
      <stop offset="0" stop-color="#ffe3c7"/>
      <stop offset="1" stop-color="#f0b88f"/>
    </linearGradient>
    <linearGradient id="shirt" x1="60" y1="162" x2="198" y2="228" gradientUnits="userSpaceOnUse">
      <stop offset="0" stop-color="#8f1230"/>
      <stop offset="1" stop-color="#d11b3d"/>
    </linearGradient>
  </defs>
  <rect width="256" height="256" rx="72" fill="url(#bg)"/>
  <circle cx="128" cy="128" r="104" fill="none" stroke="#ffffff" stroke-width="12" opacity="0.8"/>
  <path d="M58 218c8-39 35-62 70-62s62 23 70 62c-18 15-42 24-70 24s-52-9-70-24Z" fill="url(#shirt)"/>
  <path d="M83 113c0-38 20-66 49-66s48 28 48 66c0 36-21 61-48 61s-49-25-49-61Z" fill="url(#face)"/>
  <path d="M82 103c5-39 29-62 57-62 29 0 50 23 51 58-24 5-52-2-72-19-8 15-20 23-36 23Z" fill="#172033"/>
  <path d="M76 112c2-19 9-34 18-45 2 18-2 34-12 49l-6-4Z" fill="#172033"/>
  <circle cx="107" cy="119" r="5" fill="#172033"/>
  <circle cx="149" cy="119" r="5" fill="#172033"/>
  <path d="M116 145c8 7 18 7 26 0" fill="none" stroke="#8d4f3a" stroke-width="6" stroke-linecap="round"/>
  <path d="M102 99c8-4 17-4 25 0" fill="none" stroke="#172033" stroke-width="5" stroke-linecap="round" opacity="0.75"/>
  <path d="M139 99c8-4 17-4 25 0" fill="none" stroke="#172033" stroke-width="5" stroke-linecap="round" opacity="0.75"/>
  <circle cx="78" cy="74" r="9" fill="#d11b3d"/>
  <circle cx="196" cy="84" r="7" fill="#f43f5e"/>
  <path d="M58 151c13 0 22 9 22 22" fill="none" stroke="#d11b3d" stroke-width="6" stroke-linecap="round" opacity="0.7"/>
  <path d="M197 151c-13 0-22 9-22 22" fill="none" stroke="#f43f5e" stroke-width="6" stroke-linecap="round" opacity="0.7"/>
</svg>
